<?xml version="1.0" encoding="utf-8"?><svg viewBox="0 0 50 50" xmlns="http://www.w3.org/2000/svg" xmlns:xlink="http://www.w3.org/1999/xlink"><style>:root>svg{display:none}:root>svg:target{display:block}</style><svg viewBox="0 0 13 7" id="arrow-down" xmlns="http://www.w3.org/2000/svg"><path fill-rule="evenodd" clip-rule="evenodd" d="M1.043.418a1 1 0 011.414 0L6.5 4.46 10.543.418a1 1 0 111.414 1.414l-4.75 4.75a1 1 0 01-1.414 0l-4.75-4.75a1 1 0 010-1.414z"/></svg><svg viewBox="0 0 16 16" id="arrow-right" xmlns="http://www.w3.org/2000/svg"><path fill-rule="evenodd" clip-rule="evenodd" d="M9.343.929l6.364 6.364a1 1 0 010 1.414L9.343 15.07a1 1 0 01-1.414-1.414L12.586 9H1a1 1 0 110-2h11.586L7.929 2.343A1 1 0 019.343.929z"/></svg><svg viewBox="0 0 14 10" id="breadcrumbs-arrow" xmlns="http://www.w3.org/2000/svg"><path fill-rule="evenodd" clip-rule="evenodd" d="M9.34.199l4.455 4.32a.665.665 0 010 .961L9.34 9.801a.715.715 0 01-.99 0 .665.665 0 010-.96l3.26-3.162H.7A.69.69 0 010 5a.69.69 0 01.7-.679h10.91L8.35 1.159a.665.665 0 010-.96.715.715 0 01.99 0z"/></svg><svg viewBox="0 0 12 14" id="breadcrumbs-home" xmlns="http://www.w3.org/2000/svg"><path d="M0 5L6 .333 12 5v7.333a1.333 1.333 0 01-1.333 1.333H1.333A1.333 1.333 0 010 12.333V5z"/></svg><svg viewBox="0 0 20 20" id="calendar" xmlns="http://www.w3.org/2000/svg"><path fill-rule="evenodd" clip-rule="evenodd" d="M4.167 4.333A.667.667 0 003.5 5v11.666c0 .369.298.667.667.667h11.666a.667.667 0 00.667-.667V5a.667.667 0 00-.667-.667H4.167zM1.5 5a2.667 2.667 0 012.667-2.667h11.666A2.667 2.667 0 0118.5 5v11.666a2.667 2.667 0 01-2.667 2.667H4.167A2.667 2.667 0 011.5 16.666V5z"/><path fill-rule="evenodd" clip-rule="evenodd" d="M13.332.667a1 1 0 011 1V5a1 1 0 11-2 0V1.667a1 1 0 011-1zM6.668.667a1 1 0 011 1V5a1 1 0 01-2 0V1.667a1 1 0 011-1zM1.5 8.333a1 1 0 011-1h15a1 1 0 110 2h-15a1 1 0 01-1-1z"/></svg><svg viewBox="0 0 50 50" id="check" xmlns="http://www.w3.org/2000/svg"><path fill-rule="evenodd" clip-rule="evenodd" d="M42.373 11.793a1 1 0 010 1.414L19.456 36.124a1 1 0 01-1.414 0L7.625 25.707a1 1 0 111.414-1.414l9.71 9.71 22.21-22.21a1 1 0 011.413 0z"/></svg><svg viewBox="0 0 50 50" id="cite" xmlns="http://www.w3.org/2000/svg"><path d="M25.5 12l-8.46 13.08 8.46 13.08h-5.16L12 25.08 20.34 12h5.16zm13.08 0l-8.46 13.08 8.46 13.08h-5.16l-8.34-13.08L33.42 12h5.16z"/></svg><svg viewBox="0 0 31 31" id="control-next" xmlns="http://www.w3.org/2000/svg"><path fill-rule="evenodd" clip-rule="evenodd" d="M14.555 25.26a1 1 0 01-.024-1.413l7.11-7.347H6.5a1 1 0 110-2h15.14l-7.109-7.346a1 1 0 111.438-1.39l8.75 9.04a1 1 0 010 1.392l-8.75 9.041a1 1 0 01-1.414.024z"/></svg><svg viewBox="0 0 30 31" id="control-prew" xmlns="http://www.w3.org/2000/svg"><path fill-rule="evenodd" clip-rule="evenodd" d="M15.695 5.74a1 1 0 01.024 1.413L8.609 14.5H23.75a1 1 0 110 2H8.61l7.109 7.346a1 1 0 11-1.438 1.39l-8.75-9.04a1 1 0 010-1.392l8.75-9.041a1 1 0 011.414-.024z"/></svg><svg viewBox="0 0 50 50" id="error" xmlns="http://www.w3.org/2000/svg"><path fill-rule="evenodd" clip-rule="evenodd" d="M25.001 5.167C14.048 5.167 5.168 14.047 5.168 25c0 10.954 8.88 19.834 19.833 19.834 10.954 0 19.834-8.88 19.834-19.834 0-10.953-8.88-19.833-19.834-19.833zM3.168 25c0-12.058 9.775-21.833 21.833-21.833 12.058 0 21.834 9.775 21.834 21.833 0 12.059-9.776 21.834-21.834 21.834S3.168 37.058 3.168 25z"/><path fill-rule="evenodd" clip-rule="evenodd" d="M25 15.667a1 1 0 011 1V25a1 1 0 11-2 0v-8.333a1 1 0 011-1zM24 33.333a1 1 0 011-1h.02a1 1 0 110 2H25a1 1 0 01-1-1z"/></svg><svg viewBox="0 0 20 20" id="eye" xmlns="http://www.w3.org/2000/svg"><path fill-rule="evenodd" clip-rule="evenodd" d="M2.215 10.644L1.925 10l.29-.644a8.425 8.425 0 013.143-3.627A8.614 8.614 0 0110 4.374c1.648 0 3.26.47 4.642 1.355a8.425 8.425 0 013.143 3.627l.29.644-.292.644a8.426 8.426 0 01-3.142 3.626 8.615 8.615 0 01-4.642 1.355c-1.647 0-3.26-.47-4.641-1.355a8.425 8.425 0 01-3.143-3.626zm-1.74-2.05l-.33.732a1.642 1.642 0 000 1.35l.33.73a10.31 10.31 0 003.846 4.437A10.54 10.54 0 0010 17.5a10.54 10.54 0 005.68-1.657 10.309 10.309 0 003.844-4.437l.33-.73a1.642 1.642 0 000-1.351l-.33-.73a10.309 10.309 0 00-3.845-4.438A10.54 10.54 0 0010 2.5a10.54 10.54 0 00-5.678 1.657A10.31 10.31 0 00.475 8.594zM11.905 10c0 .498-.2.975-.558 1.326a1.92 1.92 0 01-1.347.55 1.92 1.92 0 01-1.347-.55A1.862 1.862 0 018.095 10c0-.498.2-.975.558-1.326A1.92 1.92 0 0110 8.124c.505 0 .99.198 1.347.55.357.351.558.828.558 1.326zm1.905 0c0 .995-.402 1.95-1.116 2.653A3.84 3.84 0 0110 13.752a3.84 3.84 0 01-2.694-1.1A3.723 3.723 0 016.19 10c0-.995.401-1.95 1.116-2.653A3.84 3.84 0 0110 6.248c1.01 0 1.98.395 2.694 1.1A3.723 3.723 0 0113.81 10z"/></svg><svg viewBox="0 0 31 29" id="icons-1c" xmlns="http://www.w3.org/2000/svg"><path fill-rule="evenodd" clip-rule="evenodd" d="M31 6.955V29H11v-2h18V11.044l-9 7V11l-8.4 6.3-1.2-1.6L22 7v6.955l9-7z"/><path fill-rule="evenodd" clip-rule="evenodd" d="M3.867 2L2.143 27h8.714L9.133 2H3.867zm-.934-2a1 1 0 00-.997.931l-1.862 27A1 1 0 001.07 29H11.93a1 1 0 00.997-1.069l-1.862-27A1 1 0 0010.067 0H2.933z"/><path d="M17 20h2v3h-2v-3zM22 20h2v3h-2v-3z"/></svg><svg viewBox="0 0 32 32" id="icons-admin" xmlns="http://www.w3.org/2000/svg"><g clip-path="url(#mclip0_3_672)" fill-rule="evenodd" clip-rule="evenodd"><path d="M16 13a3 3 0 100 6 3 3 0 000-6zm-5 3a5 5 0 1110 0 5 5 0 01-10 0z"/><path d="M15.999 2.333A1.667 1.667 0 0014.332 4v.23a3.2 3.2 0 01-1.94 2.929 1 1 0 01-.296.076 3.2 3.2 0 01-3.33-.72l-.008-.008-.08-.08a1.67 1.67 0 00-2.358 0h-.001a1.667 1.667 0 000 2.359l.088.088a3.2 3.2 0 01.653 3.5 3.2 3.2 0 01-2.918 2.065H4a1.667 1.667 0 000 3.334h.23a3.2 3.2 0 012.927 1.935 3.2 3.2 0 01-.642 3.524l-.008.008-.08.08a1.67 1.67 0 000 2.359 1.667 1.667 0 002.359 0l.088-.088a3.2 3.2 0 013.5-.652 3.2 3.2 0 012.065 2.917V28a1.667 1.667 0 003.334 0v-.231a3.2 3.2 0 011.935-2.926 3.2 3.2 0 013.524.642l.008.008.08.08a1.669 1.669 0 002.359 0 1.668 1.668 0 000-2.36l-.088-.087a3.2 3.2 0 01-.642-3.525 3.2 3.2 0 012.927-1.935h.124a1.667 1.667 0 000-3.333h-.231a3.2 3.2 0 01-2.928-1.94.998.998 0 01-.077-.296 3.2 3.2 0 01.72-3.33l.008-.008.08-.08a1.67 1.67 0 00.001-2.358V6.32a1.667 1.667 0 00-2.36 0l-.087.088a3.2 3.2 0 01-3.525.642 3.2 3.2 0 01-1.935-2.926V4A1.667 1.667 0 0016 2.333zm-2.593-.926A3.666 3.666 0 0119.666 4v.117a1.199 1.199 0 00.727 1.097l.01.004a1.2 1.2 0 001.32-.237l.075-.075a3.666 3.666 0 015.983 1.19 3.667 3.667 0 01-.795 3.997l-.076.076a1.2 1.2 0 00-.236 1.32c.035.081.06.167.073.254a1.201 1.201 0 001.027.59H28a3.666 3.666 0 110 7.333h-.118a1.2 1.2 0 00-1.096.728l-.005.01a1.2 1.2 0 00.237 1.32l.075.075a3.67 3.67 0 11-5.188 5.187l-.075-.075a1.2 1.2 0 00-1.32-.237l-.01.005a1.2 1.2 0 00-.727 1.096V28a3.667 3.667 0 01-7.333 0v-.107a1.2 1.2 0 00-.786-1.088 1.025 1.025 0 01-.058-.024 1.2 1.2 0 00-1.32.237l-.075.075a3.666 3.666 0 01-5.984-1.19 3.667 3.667 0 01.796-3.997l.075-.076a1.2 1.2 0 00.237-1.32l-.004-.01a1.2 1.2 0 00-1.097-.727h-.224a3.667 3.667 0 010-7.333h.106a1.2 1.2 0 001.088-.785.996.996 0 01.024-.06 1.2 1.2 0 00-.237-1.32l-.075-.075A3.667 3.667 0 017.5 3.939a3.666 3.666 0 012.594 1.075l.075.075a1.2 1.2 0 001.32.237.999.999 0 01.254-.074 1.2 1.2 0 00.59-1.027V4c0-.973.386-1.905 1.074-2.593z"/></g><defs><clipPath id="mclip0_3_672"><path d="M0 0h32v32H0z"/></clipPath></defs></svg><svg viewBox="0 0 39 26" id="icons-auto" xmlns="http://www.w3.org/2000/svg"><path fill-rule="evenodd" clip-rule="evenodd" d="M9 24a3 3 0 100-6 3 3 0 000 6zm0 2a5 5 0 100-10 5 5 0 000 10zM27 24a3 3 0 100-6 3 3 0 000 6zm0 2a5 5 0 100-10 5 5 0 000 10z"/><path fill-rule="evenodd" clip-rule="evenodd" d="M23 21H13v-2h10v2z"/><path fill-rule="evenodd" clip-rule="evenodd" d="M0 0h27v17.077h-2V2H2v17h2.922v2H0V0z"/><path fill-rule="evenodd" clip-rule="evenodd" d="M31.891 6H26V4h7.109L38 13.467V21h-8v-2h6v-5.047L31.891 6z"/><path fill-rule="evenodd" clip-rule="evenodd" d="M26 12h11v2H26v-2z"/></svg><svg viewBox="0 0 26 32" id="icons-docs" xmlns="http://www.w3.org/2000/svg"><path fill-rule="evenodd" clip-rule="evenodd" d="M6.942.75h7.641a1 1 0 01.707.293l9.5 9.5a1 1 0 01.293.707v13.975c0 .851 0 1.55-.046 2.12-.049.59-.152 1.127-.408 1.63a4.167 4.167 0 01-1.82 1.82c-.504.257-1.041.36-1.631.408-.57.047-1.268.047-2.12.047H6.942c-.852 0-1.551 0-2.12-.047-.59-.048-1.127-.15-1.63-.407a4.167 4.167 0 01-1.821-1.821c-.257-.503-.36-1.04-.408-1.63-.047-.57-.047-1.269-.046-2.12V6.775c0-.851 0-1.55.046-2.12.048-.59.151-1.127.408-1.63a4.167 4.167 0 011.82-1.82c.504-.257 1.041-.36 1.63-.409C5.392.75 6.092.75 6.942.75zM4.985 2.79c-.466.038-.711.107-.885.196-.408.208-.74.54-.947.947-.09.174-.159.419-.197.885-.039.478-.04 1.095-.04 1.999v18.366c0 .904.001 1.52.04 1.999.038.466.108.71.197.885.207.408.539.74.947.947.174.089.419.158.885.196.478.04 1.095.04 1.998.04h12.034c.903 0 1.52 0 1.998-.04.466-.038.71-.107.885-.196.408-.208.74-.54.947-.947.089-.174.158-.419.196-.885.04-.478.04-1.095.04-1.999V12.25H17.08c-.412 0-.78 0-1.085-.025-.326-.027-.667-.086-1.001-.257a2.583 2.583 0 01-1.13-1.129c-.17-.333-.23-.675-.256-1.001a14.177 14.177 0 01-.025-1.085V2.75h-6.6c-.903 0-1.52 0-1.998.04zm10.598 1.374l6.086 6.086h-4.553c-.46 0-.744 0-.958-.018-.2-.017-.25-.042-.256-.045a.583.583 0 01-.255-.256c-.003-.005-.03-.056-.046-.256a13.374 13.374 0 01-.018-.958V4.164zM7.25 11.25a1 1 0 011-1h1.583a1 1 0 110 2H8.25a1 1 0 01-1-1zm0 6.333a1 1 0 011-1h9.5a1 1 0 110 2h-9.5a1 1 0 01-1-1zm0 6.334a1 1 0 011-1h9.5a1 1 0 110 2h-9.5a1 1 0 01-1-1z"/></svg><svg viewBox="0 0 32 32" id="icons-move" xmlns="http://www.w3.org/2000/svg"><path fill-rule="evenodd" clip-rule="evenodd" d="M7.373 11.293a1 1 0 010 1.414L4.08 16l3.293 3.293a1 1 0 11-1.414 1.414l-4-4a1 1 0 010-1.414l4-4a1 1 0 011.414 0zM15.293 1.96a1 1 0 011.414 0l4 4a1 1 0 01-1.414 1.414L16 4.081l-3.293 3.293a1 1 0 11-1.414-1.414l4-4zM11.293 24.626a1 1 0 011.414 0L16 27.919l3.293-3.293a1 1 0 011.414 1.414l-4 4a1 1 0 01-1.414 0l-4-4a1 1 0 010-1.414zM24.627 11.293a1 1 0 011.414 0l4 4a1 1 0 010 1.414l-4 4a1 1 0 01-1.414-1.414L27.92 16l-3.293-3.293a1 1 0 010-1.414z"/><path fill-rule="evenodd" clip-rule="evenodd" d="M1.666 16a1 1 0 011-1h26.667a1 1 0 110 2H2.666a1 1 0 01-1-1z"/><path fill-rule="evenodd" clip-rule="evenodd" d="M16 1.667a1 1 0 011 1v26.667a1 1 0 01-2 0V2.667a1 1 0 011-1z"/></svg><svg viewBox="0 0 40 40" id="icons-pack" xmlns="http://www.w3.org/2000/svg"><path fill-rule="evenodd" clip-rule="evenodd" d="M11.634 6.517A1 1 0 0113 6.15l15 8.65a1 1 0 11-1 1.733l-15-8.65a1 1 0 01-.366-1.366z"/><path fill-rule="evenodd" clip-rule="evenodd" d="M17.835 2.916a4.334 4.334 0 014.332.001l11.666 6.667A4.333 4.333 0 0136 13.332v13.335a4.333 4.333 0 01-2.167 3.75l-.003.001-11.663 6.665h-.002a4.333 4.333 0 01-4.332 0L6.171 30.418l-.004-.002A4.334 4.334 0 014 26.668V13.333a4.334 4.334 0 012.167-3.749l.004-.002 11.662-6.665h.002zM20 4.336c-.41 0-.812.109-1.167.314l-.003.002-11.663 6.664-.002.001A2.334 2.334 0 006 13.334v13.332a2.333 2.333 0 001.167 2.018l11.666 6.667a2.333 2.333 0 002.334 0l.003-.002 11.663-6.665h.002A2.333 2.333 0 0034 26.665V13.334a2.333 2.333 0 00-1.165-2.017h-.002L21.171 4.651l-.004-.002A2.333 2.333 0 0020 4.337z"/><path fill-rule="evenodd" clip-rule="evenodd" d="M4.584 11.1a1 1 0 011.366-.366L20 18.861l14.049-8.127a1 1 0 111.001 1.731L20.5 20.882a1 1 0 01-1.001 0l-14.55-8.417a1 1 0 01-.365-1.366z"/><path fill-rule="evenodd" clip-rule="evenodd" d="M20 19a1 1 0 011 1v16.8a1 1 0 11-2 0V20a1 1 0 011-1z"/></svg><svg viewBox="0 0 38 38" id="icons-user" xmlns="http://www.w3.org/2000/svg"><path d="M10.127 30.776a1 1 0 101.99.198l-1.99-.198zm15.755.198a1 1 0 101.99-.198l-1.99.198zM32.25 19c0 7.318-5.932 13.25-13.25 13.25v2c8.422 0 15.25-6.828 15.25-15.25h-2zM19 32.25c-7.318 0-13.25-5.932-13.25-13.25h-2c0 8.422 6.828 15.25 15.25 15.25v-2zM5.75 19c0-7.318 5.932-13.25 13.25-13.25v-2C10.578 3.75 3.75 10.578 3.75 19h2zM19 5.75c7.318 0 13.25 5.932 13.25 13.25h2c0-8.422-6.828-15.25-15.25-15.25v2zm2.167 10.083C21.167 17.03 20.197 18 19 18v2a4.167 4.167 0 004.167-4.167h-2zM19 18a2.167 2.167 0 01-2.167-2.167h-2A4.167 4.167 0 0019 20v-2zm-2.167-2.167c0-1.196.97-2.166 2.167-2.166v-2a4.167 4.167 0 00-4.167 4.166h2zM19 13.667c1.197 0 2.167.97 2.167 2.166h2A4.167 4.167 0 0019 11.667v2zm-6.883 17.307A6.918 6.918 0 0119 24.75v-2a8.918 8.918 0 00-8.873 8.026l1.99.198zM19 24.75a6.918 6.918 0 016.883 6.224l1.99-.198A8.918 8.918 0 0019 22.75v2z"/></svg><svg viewBox="0 0 32 32" id="icons-user2" xmlns="http://www.w3.org/2000/svg"><path fill-rule="evenodd" clip-rule="evenodd" d="M6.189 20.855A6.333 6.333 0 0110.667 19h10.667a6.333 6.333 0 016.333 6.333V28a1 1 0 11-2 0v-2.667A4.333 4.333 0 0021.334 21H10.667a4.333 4.333 0 00-4.333 4.333V28a1 1 0 11-2 0v-2.667c0-1.68.667-3.29 1.855-4.478zM16 5a4.333 4.333 0 100 8.667A4.333 4.333 0 0016 5zM9.665 9.333a6.333 6.333 0 1112.667 0 6.333 6.333 0 01-12.667 0z"/></svg><svg viewBox="0 0 42 43" id="search" xmlns="http://www.w3.org/2000/svg"><path fill-rule="evenodd" clip-rule="evenodd" d="M20 12.5a8 8 0 100 16 8 8 0 000-16zm-10 8c0-5.523 4.477-10 10-10s10 4.477 10 10-4.477 10-10 10-10-4.477-10-10z"/><path fill-rule="evenodd" clip-rule="evenodd" d="M25.648 26.15a1 1 0 011.415 0l4.893 4.893a1 1 0 11-1.414 1.414l-4.894-4.893a1 1 0 010-1.415z"/></svg><svg viewBox="0 0 24 24" id="x" xmlns="http://www.w3.org/2000/svg"><path fill-rule="evenodd" clip-rule="evenodd" d="M21.707 2.293a1 1 0 010 1.414l-18 18a1 1 0 01-1.414-1.414l18-18a1 1 0 011.414 0z"/><path fill-rule="evenodd" clip-rule="evenodd" d="M2.293 2.293a1 1 0 011.414 0l18 18a1 1 0 01-1.414 1.414l-18-18a1 1 0 010-1.414z"/></svg></svg>